<svg width="112" height="29" viewBox="0 0 112 29" fill="none" xmlns="http://www.w3.org/2000/svg">
<path d="M0.453125 14.2422C0.453125 13.2734 0.679688 12.375 1.13281 11.5469C1.58594 10.7031 2.17969 9.98438 2.91406 9.39062C3.66406 8.78125 4.5 8.30469 5.42188 7.96094C6.35938 7.61719 7.30469 7.44531 8.25781 7.44531C8.78906 7.44531 9.25781 7.61719 9.66406 7.96094C10.0859 8.30469 10.4375 8.72656 10.7188 9.22656C11 9.71094 11.2109 10.2266 11.3516 10.7734C11.5078 11.3203 11.5859 11.7969 11.5859 12.2031C11.5859 13.0781 11.375 13.9297 10.9531 14.7578C10.5312 15.5703 9.98438 16.2969 9.3125 16.9375C8.64062 17.5625 7.88281 18.0703 7.03906 18.4609C6.19531 18.8516 5.35156 19.0469 4.50781 19.0469C3.75781 19.0469 3.125 18.9219 2.60938 18.6719C2.09375 18.4062 1.67969 18.0625 1.36719 17.6406C1.05469 17.2031 0.820312 16.6953 0.664062 16.1172C0.523438 15.5234 0.453125 14.8984 0.453125 14.2422ZM2.44531 14.4766C2.44531 14.8828 2.47656 15.2422 2.53906 15.5547C2.61719 15.8516 2.74219 16.1094 2.91406 16.3281C3.10156 16.5469 3.34375 16.7188 3.64062 16.8438C3.9375 16.9531 4.30469 17.0078 4.74219 17.0078C5.32031 17.0078 5.89844 16.8516 6.47656 16.5391C7.05469 16.2109 7.57031 15.8047 8.02344 15.3203C8.49219 14.8203 8.86719 14.2734 9.14844 13.6797C9.42969 13.0859 9.57031 12.5078 9.57031 11.9453C9.57031 11.6953 9.54688 11.4219 9.5 11.125C9.45312 10.8281 9.375 10.5547 9.26562 10.3047C9.15625 10.0547 9 9.84375 8.79688 9.67188C8.59375 9.5 8.33594 9.41406 8.02344 9.41406C7.74219 9.41406 7.40625 9.50781 7.01562 9.69531C6.64062 9.88281 6.24219 10.125 5.82031 10.4219C5.41406 10.7188 5.00781 11.0547 4.60156 11.4297C4.21094 11.8047 3.85156 12.1797 3.52344 12.5547C3.19531 12.9297 2.92969 13.2891 2.72656 13.6328C2.53906 13.9766 2.44531 14.2578 2.44531 14.4766ZM20.5625 7.44531C20.5938 7.41406 20.6172 7.375 20.6328 7.32812C20.6641 7.26562 20.6797 7.21875 20.6797 7.1875C20.6797 6.82812 20.4609 6.59375 20.0234 6.48438C19.6016 6.35938 19.0703 6.30469 18.4297 6.32031C17.7891 6.32031 17.0938 6.35156 16.3438 6.41406C15.6094 6.47656 14.9219 6.50781 14.2812 6.50781C13.6406 6.49219 13.1016 6.41406 12.6641 6.27344C12.2422 6.11719 12.0312 5.83594 12.0312 5.42969C12.0312 5.16406 12.0469 4.96875 12.0781 4.84375C12.125 4.70312 12.1875 4.60938 12.2656 4.5625C12.3438 4.5 12.4375 4.46875 12.5469 4.46875C12.6719 4.45312 12.8047 4.44531 12.9453 4.44531H13.5547C13.7422 4.46094 14.0469 4.48438 14.4688 4.51562C14.8906 4.53125 15.3672 4.55469 15.8984 4.58594C16.4297 4.60156 16.9844 4.63281 17.5625 4.67969C18.1562 4.71094 18.7109 4.74219 19.2266 4.77344C19.7578 4.80469 20.2266 4.83594 20.6328 4.86719C21.0547 4.89844 21.375 4.92188 21.5938 4.9375C21.875 5.10938 22.1094 5.26562 22.2969 5.40625C22.5 5.54688 22.6562 5.6875 22.7656 5.82812C22.8906 5.96875 22.9766 6.125 23.0234 6.29688C23.0859 6.45312 23.1172 6.65625 23.1172 6.90625C23.1172 7.4375 23.0078 7.96094 22.7891 8.47656C22.5703 8.97656 22.2891 9.48438 21.9453 10C21.6172 10.5 21.2344 11.0078 20.7969 11.5234C20.375 12.0234 19.9609 12.5234 19.5547 13.0234C19.1484 13.5234 18.7656 14.0234 18.4062 14.5234C18.0469 15.0234 17.7656 15.5078 17.5625 15.9766H23.5859C24.0391 15.9766 24.3281 16.0625 24.4531 16.2344C24.5781 16.4062 24.6406 16.6484 24.6406 16.9609C24.6406 17.1797 24.6172 17.3828 24.5703 17.5703C24.5234 17.7578 24.3594 17.8984 24.0781 17.9922C23.3281 18.0547 22.5703 18.1484 21.8047 18.2734C21.0391 18.3984 20.2734 18.5234 19.5078 18.6484C18.7422 18.7734 17.9688 18.8828 17.1875 18.9766C16.4219 19.0703 15.6562 19.1172 14.8906 19.1172C14.8906 17.9922 15.0625 16.9141 15.4062 15.8828C15.7656 14.8359 16.2188 13.8281 16.7656 12.8594C17.3281 11.8906 17.9375 10.9531 18.5938 10.0469C19.2656 9.14062 19.9219 8.27344 20.5625 7.44531ZM36.1484 15.9766C35.5547 16.3828 35.0391 16.75 34.6016 17.0781C34.1797 17.3906 33.7656 17.6562 33.3594 17.875C32.9531 18.0938 32.5156 18.2578 32.0469 18.3672C31.5938 18.4766 31.0312 18.5312 30.3594 18.5312C28.9062 18.5312 27.8281 18.1484 27.125 17.3828C26.4219 16.6016 26.0703 15.4453 26.0703 13.9141C26.0703 13.3203 26.1484 12.7031 26.3047 12.0625C26.4609 11.4219 26.6875 10.7891 26.9844 10.1641C27.2969 9.52344 27.6641 8.92188 28.0859 8.35938C28.5078 7.78125 28.9844 7.27344 29.5156 6.83594C30.0469 6.39844 30.6094 6.05469 31.2031 5.80469C31.8125 5.53906 32.4531 5.40625 33.125 5.40625C34.25 5.51562 35.1328 5.79688 35.7734 6.25C36.4141 6.6875 36.8984 7.25781 37.2266 7.96094C37.5547 8.64844 37.7812 9.42188 37.9062 10.2812C38.0312 11.125 38.125 12 38.1875 12.9062C38.2656 13.8125 38.3594 14.7188 38.4688 15.625C38.5781 16.5312 38.8047 17.3672 39.1484 18.1328C38.9453 18.6484 38.75 19.0078 38.5625 19.2109C38.3906 19.4297 38.1953 19.4688 37.9766 19.3281C37.7578 19.1875 37.5 18.8438 37.2031 18.2969C36.9219 17.75 36.5703 16.9766 36.1484 15.9766ZM28.0625 13.9609C28.0625 14.8516 28.2266 15.5078 28.5547 15.9297C28.8984 16.3359 29.5 16.5391 30.3594 16.5391C31 16.5391 31.6094 16.4297 32.1875 16.2109C32.7812 15.9766 33.2969 15.6641 33.7344 15.2734C34.1719 14.8672 34.5234 14.3828 34.7891 13.8203C35.0547 13.2578 35.1875 12.6328 35.1875 11.9453C35.1875 11.6641 35.1953 11.2734 35.2109 10.7734C35.2266 10.2578 35.1953 9.75 35.1172 9.25C35.0391 8.75 34.8906 8.32031 34.6719 7.96094C34.4531 7.58594 34.125 7.39844 33.6875 7.39844C32.875 7.39844 32.125 7.60938 31.4375 8.03125C30.75 8.4375 30.1562 8.96094 29.6562 9.60156C29.1562 10.2422 28.7656 10.9531 28.4844 11.7344C28.2031 12.5 28.0625 13.2422 28.0625 13.9609ZM40.625 11.1016C40.625 10.6953 40.7266 10.4062 40.9297 10.2344C41.1328 10.0469 41.4609 9.95312 41.9141 9.95312H42.1484C42.1953 10.2031 42.25 10.4922 42.3125 10.8203C42.375 11.1484 42.4688 11.4844 42.5938 11.8281C42.7188 12.1719 42.8672 12.4922 43.0391 12.7891C43.2109 13.0703 43.4219 13.2969 43.6719 13.4688C43.6875 12.9219 43.8203 12.3984 44.0703 11.8984C44.3359 11.3828 44.6562 10.9297 45.0312 10.5391C45.4219 10.1328 45.8438 9.79688 46.2969 9.53125C46.7656 9.25 47.2266 9.0625 47.6797 8.96875H48.1953C48.9453 8.96875 49.5859 9.14062 50.1172 9.48438C50.6484 9.8125 51.0859 10.25 51.4297 10.7969C51.7891 11.3281 52.0625 11.9375 52.25 12.625C52.4375 13.3125 52.5781 14.0156 52.6719 14.7344C52.7812 15.4375 52.8438 16.125 52.8594 16.7969C52.8906 17.4531 52.9062 18.0156 52.9062 18.4844H51.1953C51.1016 17.5469 50.9844 16.6484 50.8438 15.7891C50.7969 15.4453 50.7344 15.0859 50.6562 14.7109C50.5781 14.3203 50.4922 13.9609 50.3984 13.6328C50.3047 13.2891 50.2031 12.9766 50.0938 12.6953C49.9844 12.3984 49.8594 12.1484 49.7188 11.9453C49.6562 11.8828 49.5703 11.7969 49.4609 11.6875C49.3672 11.5781 49.2656 11.4688 49.1562 11.3594C49.0469 11.25 48.9453 11.1562 48.8516 11.0781C48.7578 11 48.7031 10.9609 48.6875 10.9609C48.2188 10.8359 47.8125 10.9297 47.4688 11.2422C47.125 11.5391 46.8203 11.9453 46.5547 12.4609C46.2891 12.9766 46.0703 13.5625 45.8984 14.2188C45.7422 14.875 45.6094 15.5078 45.5 16.1172C45.3906 16.7109 45.3125 17.2344 45.2656 17.6875C45.2188 18.125 45.1875 18.3906 45.1719 18.4844C44.7812 18.7656 44.4141 18.8516 44.0703 18.7422C43.7266 18.6172 43.3984 18.3672 43.0859 17.9922C42.7891 17.6172 42.5156 17.1484 42.2656 16.5859C42.0312 16.0234 41.8125 15.4297 41.6094 14.8047C41.4062 14.1641 41.2188 13.5234 41.0469 12.8828C40.8906 12.2422 40.75 11.6484 40.625 11.1016ZM64.2734 15.9766C63.6797 16.3828 63.1641 16.75 62.7266 17.0781C62.3047 17.3906 61.8906 17.6562 61.4844 17.875C61.0781 18.0938 60.6406 18.2578 60.1719 18.3672C59.7188 18.4766 59.1562 18.5312 58.4844 18.5312C57.0312 18.5312 55.9531 18.1484 55.25 17.3828C54.5469 16.6016 54.1953 15.4453 54.1953 13.9141C54.1953 13.3203 54.2734 12.7031 54.4297 12.0625C54.5859 11.4219 54.8125 10.7891 55.1094 10.1641C55.4219 9.52344 55.7891 8.92188 56.2109 8.35938C56.6328 7.78125 57.1094 7.27344 57.6406 6.83594C58.1719 6.39844 58.7344 6.05469 59.3281 5.80469C59.9375 5.53906 60.5781 5.40625 61.25 5.40625C62.375 5.51562 63.2578 5.79688 63.8984 6.25C64.5391 6.6875 65.0234 7.25781 65.3516 7.96094C65.6797 8.64844 65.9062 9.42188 66.0312 10.2812C66.1562 11.125 66.25 12 66.3125 12.9062C66.3906 13.8125 66.4844 14.7188 66.5938 15.625C66.7031 16.5312 66.9297 17.3672 67.2734 18.1328C67.0703 18.6484 66.875 19.0078 66.6875 19.2109C66.5156 19.4297 66.3203 19.4688 66.1016 19.3281C65.8828 19.1875 65.625 18.8438 65.3281 18.2969C65.0469 17.75 64.6953 16.9766 64.2734 15.9766ZM56.1875 13.9609C56.1875 14.8516 56.3516 15.5078 56.6797 15.9297C57.0234 16.3359 57.625 16.5391 58.4844 16.5391C59.125 16.5391 59.7344 16.4297 60.3125 16.2109C60.9062 15.9766 61.4219 15.6641 61.8594 15.2734C62.2969 14.8672 62.6484 14.3828 62.9141 13.8203C63.1797 13.2578 63.3125 12.6328 63.3125 11.9453C63.3125 11.6641 63.3203 11.2734 63.3359 10.7734C63.3516 10.2578 63.3203 9.75 63.2422 9.25C63.1641 8.75 63.0156 8.32031 62.7969 7.96094C62.5781 7.58594 62.25 7.39844 61.8125 7.39844C61 7.39844 60.25 7.60938 59.5625 8.03125C58.875 8.4375 58.2812 8.96094 57.7812 9.60156C57.2812 10.2422 56.8906 10.9531 56.6094 11.7344C56.3281 12.5 56.1875 13.2422 56.1875 13.9609ZM68.3516 6.88281C68.3516 6.74219 68.3516 6.60156 68.3516 6.46094C68.3672 6.30469 68.3984 6.16406 68.4453 6.03906C68.5078 5.89844 68.5859 5.79688 68.6797 5.73438C68.7891 5.65625 68.9453 5.61719 69.1484 5.61719C69.1641 5.61719 69.1797 5.61719 69.1953 5.61719C69.2266 5.61719 69.2578 5.61719 69.2891 5.61719C69.3359 5.63281 69.375 5.64062 69.4062 5.64062C69.7031 6.04688 69.9609 6.57031 70.1797 7.21094C70.3984 7.83594 70.6094 8.50781 70.8125 9.22656C71.0156 9.92969 71.2344 10.6484 71.4688 11.3828C71.7031 12.1016 72.0078 12.75 72.3828 13.3281C72.7578 13.9062 73.2188 14.3672 73.7656 14.7109C74.3125 15.0547 74.9922 15.2031 75.8047 15.1562C76.1641 15.1562 76.3984 14.9609 76.5078 14.5703C76.6172 14.1797 76.6719 13.6797 76.6719 13.0703C76.6875 12.4609 76.6719 11.7891 76.625 11.0547C76.5938 10.3203 76.5938 9.625 76.625 8.96875C76.6719 8.29688 76.7891 7.71094 76.9766 7.21094C77.1797 6.71094 77.5234 6.375 78.0078 6.20312C78.2109 6.60938 78.375 7.25 78.5 8.125C78.6406 8.98438 78.7422 9.98438 78.8047 11.125C78.8672 12.25 78.8984 13.4766 78.8984 14.8047C78.8984 16.1172 78.8672 17.4297 78.8047 18.7422C78.7422 20.0391 78.6484 21.2891 78.5234 22.4922C78.3984 23.6953 78.2578 24.75 78.1016 25.6562C77.9453 26.5625 77.7578 27.2734 77.5391 27.7891C77.3359 28.3203 77.1172 28.5469 76.8828 28.4688C76.5547 28.1562 76.2969 27.75 76.1094 27.25C75.9375 26.75 75.8125 26.1953 75.7344 25.5859C75.6719 24.9766 75.6484 24.3281 75.6641 23.6406C75.6797 22.9688 75.7031 22.2891 75.7344 21.6016C75.7812 20.9141 75.8281 20.2422 75.875 19.5859C75.9375 18.9297 75.9688 18.3281 75.9688 17.7812C75.4062 17.8281 74.8281 17.7422 74.2344 17.5234C73.6562 17.3047 73.0859 16.9688 72.5234 16.5156C71.9609 16.0469 71.4219 15.4844 70.9062 14.8281C70.4062 14.1719 69.9609 13.4297 69.5703 12.6016C69.1953 11.7734 68.8984 10.8828 68.6797 9.92969C68.4609 8.96094 68.3516 7.94531 68.3516 6.88281ZM79.7891 16.2344C79.7891 15.3281 80.0156 14.5234 80.4688 13.8203C80.9219 13.1172 81.4844 12.5078 82.1562 11.9922C82.8281 11.4609 83.5547 11.0156 84.3359 10.6562C85.1172 10.2812 85.8438 9.97656 86.5156 9.74219C87.1875 9.49219 87.75 9.29688 88.2031 9.15625C88.6562 9 88.8828 8.875 88.8828 8.78125C88.8828 8.23438 88.8516 7.70312 88.7891 7.1875C88.7422 6.65625 88.6875 6.125 88.625 5.59375C88.5625 5.0625 88.5 4.53906 88.4375 4.02344C88.3906 3.49219 88.3672 2.96875 88.3672 2.45312V0.929688C89.0078 0.695312 89.4609 0.71875 89.7266 1C90.0078 1.28125 90.0547 1.76562 89.8672 2.45312C89.9297 2.79688 90.0156 3.33594 90.125 4.07031C90.2344 4.80469 90.3516 5.63281 90.4766 6.55469C90.6172 7.47656 90.7578 8.44531 90.8984 9.46094C91.0547 10.4766 91.1953 11.4531 91.3203 12.3906C91.4609 13.3125 91.5781 14.1406 91.6719 14.875C91.7656 15.5938 91.8359 16.1328 91.8828 16.4922C91.8984 16.5703 91.9141 16.7266 91.9297 16.9609C91.9453 17.1797 91.9531 17.4219 91.9531 17.6875C91.9688 17.9375 91.9766 18.1719 91.9766 18.3906C91.9922 18.6094 92 18.7656 92 18.8594C91.4062 18.8594 91 18.8359 90.7812 18.7891C90.5781 18.7422 90.4453 18.6484 90.3828 18.5078C90.3359 18.3672 90.3125 18.1641 90.3125 17.8984C90.3125 17.6328 90.2344 17.2656 90.0781 16.7969C89.5 17.25 88.9531 17.625 88.4375 17.9219C87.9219 18.2188 87.4062 18.4609 86.8906 18.6484C86.375 18.8203 85.8516 18.9375 85.3203 19C84.8047 19.0781 84.25 19.1172 83.6562 19.1172C83.1562 19.1172 82.6719 19.0781 82.2031 19C81.75 18.9062 81.3438 18.75 80.9844 18.5312C80.625 18.3125 80.3359 18.0156 80.1172 17.6406C79.8984 17.2656 79.7891 16.7969 79.7891 16.2344ZM81.8281 15.7422C81.8281 15.9922 81.8828 16.1953 81.9922 16.3516C82.1016 16.5078 82.2422 16.6406 82.4141 16.75C82.5859 16.8594 82.7656 16.9375 82.9531 16.9844C83.1562 17.0156 83.3516 17.0312 83.5391 17.0312C84.0859 17.0312 84.6719 16.9297 85.2969 16.7266C85.9375 16.5078 86.5234 16.2109 87.0547 15.8359C87.6016 15.4453 88.0469 14.9844 88.3906 14.4531C88.75 13.9219 88.9297 13.3438 88.9297 12.7188C88.9297 12.2344 88.8438 11.8984 88.6719 11.7109C88.5 11.5234 88.1719 11.4297 87.6875 11.4297C87.1875 11.4297 86.6016 11.5469 85.9297 11.7812C85.2734 12.0156 84.6328 12.3281 84.0078 12.7188C83.3984 13.1094 82.8828 13.5703 82.4609 14.1016C82.0391 14.6172 81.8281 15.1641 81.8281 15.7422ZM94.3672 10.2109C94.3672 10.1172 94.3672 9.96875 94.3672 9.76562C94.3828 9.54688 94.3906 9.32031 94.3906 9.08594C94.4062 8.85156 94.4141 8.625 94.4141 8.40625C94.4297 8.1875 94.4375 8.03125 94.4375 7.9375C94.6094 7.6875 94.8281 7.48438 95.0938 7.32812C95.375 7.17188 95.6562 7.04688 95.9375 6.95312C95.9844 7.79688 96.1172 8.69531 96.3359 9.64844C96.5547 10.6016 96.7891 11.5625 97.0391 12.5312C97.2891 13.4844 97.5078 14.4297 97.6953 15.3672C97.8984 16.3047 98 17.1797 98 17.9922C98 18.6953 97.6406 19.0469 96.9219 19.0469C96.4844 19.0469 96.1172 18.8672 95.8203 18.5078C95.5234 18.1484 95.2812 17.6953 95.0938 17.1484C94.9219 16.5859 94.7812 15.9688 94.6719 15.2969C94.5625 14.6094 94.4844 13.9375 94.4375 13.2812C94.4062 12.625 94.3828 12.0234 94.3672 11.4766C94.3672 10.9297 94.3672 10.5078 94.3672 10.2109ZM94.6953 1.42188C94.9922 1.54688 95.2422 1.75 95.4453 2.03125C95.6484 2.3125 95.7344 2.57031 95.7031 2.80469C95.6875 3.02344 95.5156 3.17969 95.1875 3.27344C94.8594 3.35156 94.3125 3.25781 93.5469 2.99219C93.5469 2.57031 93.625 2.20312 93.7812 1.89062C93.9531 1.57812 94.2578 1.42188 94.6953 1.42188ZM98.9141 11.1016C98.9141 10.6953 99.0156 10.4062 99.2188 10.2344C99.4219 10.0469 99.75 9.95312 100.203 9.95312H100.438C100.484 10.2031 100.539 10.4922 100.602 10.8203C100.664 11.1484 100.758 11.4844 100.883 11.8281C101.008 12.1719 101.156 12.4922 101.328 12.7891C101.5 13.0703 101.711 13.2969 101.961 13.4688C101.977 12.9219 102.109 12.3984 102.359 11.8984C102.625 11.3828 102.945 10.9297 103.32 10.5391C103.711 10.1328 104.133 9.79688 104.586 9.53125C105.055 9.25 105.516 9.0625 105.969 8.96875H106.484C107.234 8.96875 107.875 9.14062 108.406 9.48438C108.938 9.8125 109.375 10.25 109.719 10.7969C110.078 11.3281 110.352 11.9375 110.539 12.625C110.727 13.3125 110.867 14.0156 110.961 14.7344C111.07 15.4375 111.133 16.125 111.148 16.7969C111.18 17.4531 111.195 18.0156 111.195 18.4844H109.484C109.391 17.5469 109.273 16.6484 109.133 15.7891C109.086 15.4453 109.023 15.0859 108.945 14.7109C108.867 14.3203 108.781 13.9609 108.688 13.6328C108.594 13.2891 108.492 12.9766 108.383 12.6953C108.273 12.3984 108.148 12.1484 108.008 11.9453C107.945 11.8828 107.859 11.7969 107.75 11.6875C107.656 11.5781 107.555 11.4688 107.445 11.3594C107.336 11.25 107.234 11.1562 107.141 11.0781C107.047 11 106.992 10.9609 106.977 10.9609C106.508 10.8359 106.102 10.9297 105.758 11.2422C105.414 11.5391 105.109 11.9453 104.844 12.4609C104.578 12.9766 104.359 13.5625 104.188 14.2188C104.031 14.875 103.898 15.5078 103.789 16.1172C103.68 16.7109 103.602 17.2344 103.555 17.6875C103.508 18.125 103.477 18.3906 103.461 18.4844C103.07 18.7656 102.703 18.8516 102.359 18.7422C102.016 18.6172 101.688 18.3672 101.375 17.9922C101.078 17.6172 100.805 17.1484 100.555 16.5859C100.32 16.0234 100.102 15.4297 99.8984 14.8047C99.6953 14.1641 99.5078 13.5234 99.3359 12.8828C99.1797 12.2422 99.0391 11.6484 98.9141 11.1016Z" fill="#4F4F4F"/>
</svg>
