<svg width="20" height="20" viewBox="0 0 24 24" fill="none" xmlns="http://www.w3.org/2000/svg">
<path d="M12 1C13.65 1 17 2.03024 17 6C17 9.5 13.65 11 12 11C10.5 11 7 10 7 6C7 2.03024 10.35 1 12 1ZM12 14.5C18.8935 14.5 23 17.5 23 19.5V23H13H1V21V19.5C1 17.5 5 14.5 12 14.5ZM12 0C8.685 0 6 2.685 6 6C6 9.315 8.685 12 12 12C15.315 12 18 9.315 18 6C18 2.685 15.315 0 12 0ZM12 13.5C7.995 13.5 0 15.51 0 19.5V24H24V19.5C24 15.51 16.005 13.5 12 13.5Z" fill="black"/>
<line x1="6" y1="11.5" y2="11.5" stroke="black"/>
<path d="M3 14L3 9" stroke="black"/>
</svg>
